<?xml version="1.0" standalone="no"?>
<!DOCTYPE svg PUBLIC "-//W3C//DTD SVG 20010904//EN"
 "http://www.w3.org/TR/2001/REC-SVG-20010904/DTD/svg10.dtd">
<svg version="1.0" xmlns="http://www.w3.org/2000/svg"
 width="1500.000000pt" height="1500.000000pt" viewBox="0 0 1500.000000 1500.000000"
 preserveAspectRatio="xMidYMid meet">

<g transform="translate(0.000000,1500.000000) scale(0.100000,-0.100000)"
fill="#000000" stroke="none">
<path d="M0 7500 l0 -7500 7500 0 7500 0 0 7500 0 7500 -7500 0 -7500 0 0
-7500z m7497 4860 c21 0 85 -63 99 -97 19 -45 17 -80 -7 -130 -38 -78 -132
-113 -213 -79 -94 39 -128 194 -53 240 24 15 51 -18 37 -45 -32 -58 16 -139
82 -139 44 0 74 22 88 64 17 53 -12 104 -70 121 -29 9 -50 24 -50 36 0 18 34
40 54 35 12 -3 26 -6 33 -6z m-734 -75 c79 -17 152 -54 198 -101 27 -28 30
-36 19 -49 -18 -21 -26 -19 -80 20 -63 46 -118 65 -215 73 -77 7 -80 8 -80 32
0 21 6 26 40 31 22 3 42 7 45 7 3 1 36 -5 73 -13z m1628 -195 c10 -6 19 -17
19 -24 0 -28 -26 -36 -101 -30 -233 18 -472 -108 -582 -306 -31 -57 -65 -157
-82 -241 -6 -31 -31 -44 -52 -27 -12 9 -14 25 -9 66 27 230 210 455 438 538
111 41 313 53 369 24z m-1398 -115 c197 -51 358 -220 412 -430 20 -81 20 -141
-2 -149 -26 -10 -38 12 -61 109 -28 117 -69 195 -142 272 -83 89 -160 125
-313 148 -39 6 -54 23 -43 50 7 20 74 20 149 0z m1268 -185 c23 -13 25 -46 3
-54 -9 -3 -37 -6 -63 -6 -70 0 -143 -40 -193 -107 -30 -40 -47 -53 -62 -51
-78 11 56 185 168 217 43 13 123 13 147 1z m-1288 -63 c47 -35 74 -104 61
-155 -7 -30 -14 -37 -34 -37 -23 0 -25 5 -30 52 -7 69 -38 103 -93 103 -47 0
-97 -43 -97 -85 0 -61 42 -100 115 -107 25 -2 30 -8 30 -28 0 -23 -4 -25 -50
-28 -90 -5 -157 62 -157 157 0 61 24 105 77 137 54 33 128 30 178 -9z m-593
-443 c849 -120 956 -136 968 -148 4 -4 8 -116 9 -249 2 -233 1 -247 -27 -377
-39 -179 -72 -284 -128 -405 -64 -140 -131 -236 -231 -335 -195 -194 -426
-302 -678 -317 l-91 -6 -11 -61 c-15 -82 -121 -982 -121 -1027 0 -35 4 -39
123 -121 67 -47 210 -144 317 -215 211 -142 234 -161 224 -188 -9 -22 1 -23
-594 75 -261 43 -551 90 -645 105 -215 33 -286 46 -307 57 -26 13 -22 47 6 58
14 5 170 45 348 90 178 45 353 90 389 101 l66 19 12 82 c21 151 102 842 109
940 l8 98 -56 16 c-304 88 -566 355 -674 688 -104 317 -80 742 64 1137 32 90
47 108 83 103 12 -3 389 -56 837 -120z m3028 108 c36 -24 145 -407 162 -574
50 -493 -58 -844 -343 -1115 -120 -113 -203 -165 -352 -219 l-90 -32 3 -53 c3
-56 94 -832 114 -977 10 -76 14 -85 37 -94 23 -9 249 -68 646 -169 66 -17 128
-33 138 -36 13 -3 17 -12 15 -31 -3 -30 -1 -29 -203 -62 -71 -12 -386 -64
-700 -115 -313 -52 -587 -95 -609 -97 -45 -4 -69 19 -47 46 7 8 154 110 327
227 172 116 319 218 326 226 10 12 1 114 -46 512 -32 273 -63 522 -69 553
l-10 57 -76 6 c-232 19 -376 72 -564 206 -302 215 -487 601 -518 1084 -12 184
-4 378 16 395 10 8 1734 263 1815 269 8 0 21 -3 28 -7z m2945 -4311 c315 -87
566 -295 699 -579 48 -102 54 -145 20 -150 -18 -3 -25 3 -34 28 -23 68 -98
208 -140 265 -205 274 -516 419 -867 402 -483 -22 -842 -344 -912 -817 -16
-111 -6 -320 20 -422 47 -183 129 -326 257 -449 178 -171 376 -253 644 -266
291 -13 535 77 743 276 98 94 154 171 207 287 63 136 65 139 79 139 34 0 35
-32 2 -113 -52 -128 -125 -237 -225 -337 -205 -204 -425 -299 -718 -312 -153
-7 -245 4 -378 44 -312 93 -552 334 -650 651 -50 161 -63 372 -34 543 68 394
336 697 709 800 122 33 167 38 340 35 126 -3 177 -8 238 -25z m-8688 -1016 c0
-993 0 -1000 -20 -1000 -20 0 -20 8 -23 990 -1 545 0 996 3 1003 3 8 13 12 22
10 17 -3 18 -58 18 -1003z m400 943 c3 -35 5 -482 3 -995 -2 -701 -6 -935 -15
-944 -6 -6 -19 -9 -27 -6 -14 6 -16 107 -16 1000 0 547 3 997 7 1000 3 4 14 7
24 7 14 0 19 -12 24 -62z m499 46 c3 -9 6 -456 6 -994 0 -857 -2 -979 -15
-990 -12 -10 -18 -10 -30 0 -13 11 -15 134 -15 1000 0 542 3 990 7 993 12 13
41 7 47 -9z m742 -551 l399 -568 5 565 5 565 25 0 25 0 0 -630 0 -630 -21 -3
c-17 -2 -88 94 -426 580 -497 715 -458 656 -451 674 16 43 49 3 439 -553z
m852 -434 c2 -914 1 -997 -14 -1003 -45 -17 -44 -41 -44 1004 0 542 3 990 7
994 4 4 16 6 28 4 20 -3 20 -5 23 -999z m1512 977 c0 -13 -7 -27 -16 -30 -9
-3 -233 -6 -499 -6 l-483 0 -6 -22 c-8 -30 -8 -1816 0 -1845 l6 -23 497 -2
496 -3 0 -25 0 -25 -525 0 -525 0 -3 990 c-1 545 0 996 3 1003 3 9 119 12 530
12 l525 0 0 -24z m430 -951 c3 -534 7 -971 8 -972 1 -2 255 -4 565 -5 l562 -3
3 -22 c2 -16 -3 -24 -20 -28 -13 -3 -279 -4 -593 -3 l-570 3 -3 990 c-1 545 0
996 3 1003 3 8 13 12 22 10 17 -3 18 -59 23 -973z m390 956 c7 -13 10 -275 10
-780 l0 -761 367 -2 c351 -3 368 -4 371 -22 2 -10 -2 -22 -10 -27 -7 -5 -185
-9 -395 -9 -368 0 -383 1 -393 19 -11 21 -15 1556 -4 1585 8 22 41 20 54 -3z
m1148 -958 l2 -973 559 0 c484 0 560 -2 571 -15 10 -12 10 -18 0 -30 -11 -13
-89 -15 -589 -15 -435 0 -580 3 -589 12 -9 9 -12 245 -12 998 0 543 3 990 7
994 4 4 16 6 28 4 20 -3 20 -5 23 -975z m392 197 l5 -775 361 -3 c306 -2 364
-5 374 -17 10 -12 10 -18 0 -30 -11 -13 -67 -15 -394 -15 -284 0 -385 3 -394
12 -9 9 -12 201 -12 803 0 436 3 795 7 799 4 4 16 6 28 4 20 -3 20 -7 25 -778z
m-8248 675 c16 -38 189 -464 385 -945 196 -481 359 -879 363 -884 5 -4 13 0
18 10 5 11 176 429 380 929 204 501 376 923 383 938 17 37 54 34 53 -3 0 -14
-182 -469 -404 -1012 -426 -1041 -419 -1027 -454 -960 -43 83 -806 1977 -802
1989 3 8 16 13 28 11 16 -2 29 -20 50 -73z m395 63 c4 -7 85 -200 180 -428 94
-228 175 -414 180 -414 4 1 85 189 179 418 94 229 176 422 182 428 14 14 42 3
42 -17 0 -8 -84 -221 -186 -473 -103 -251 -188 -462 -191 -469 -6 -16 -27 -23
-42 -14 -12 8 -391 933 -391 955 0 27 32 36 47 14z m10059 -338 c123 -31 198
-74 290 -165 93 -93 154 -202 179 -320 73 -348 -150 -691 -494 -760 -244 -50
-495 56 -636 267 -31 48 -36 60 -25 73 22 26 38 17 79 -43 74 -110 191 -193
317 -227 86 -23 234 -21 307 4 216 75 365 250 399 466 37 240 -94 496 -310
604 -60 30 -185 61 -246 61 -75 0 -177 -25 -252 -60 -75 -37 -190 -139 -229
-206 -27 -46 -48 -55 -64 -27 -15 27 23 89 104 169 156 155 375 216 581 164z
m-4571 -40 l0 -25 -303 -3 -302 -2 2 -163 3 -162 210 -5 210 -5 0 -25 0 -25
-240 0 -240 0 -3 210 c-1 115 0 215 3 222 3 11 72 13 332 11 l328 -3 0 -25z
m-2719 -318 c12 -7 834 -1184 854 -1223 10 -17 9 -24 -3 -37 -9 -8 -22 -12
-29 -10 -7 3 -189 258 -403 567 -214 308 -392 561 -397 561 -4 0 -8 -252 -8
-559 0 -507 -2 -559 -16 -565 -44 -17 -44 -17 -44 633 0 653 1 663 46 633z
m2542 -456 c2 -10 -2 -22 -10 -27 -7 -5 -104 -9 -215 -9 l-203 0 0 -165 0
-165 303 -2 302 -3 0 -25 0 -25 -330 0 -330 0 -3 210 c-1 115 0 215 3 222 3
11 55 13 242 11 224 -3 238 -4 241 -22z"/>
<path d="M5520 11283 c-25 -68 -65 -203 -74 -254 -5 -27 -2 -39 11 -51 13 -12
177 -41 578 -103 434 -66 563 -89 572 -102 17 -22 -1 -43 -35 -43 -13 0 -260
36 -547 80 -534 82 -570 86 -594 71 -31 -20 -50 -261 -32 -424 21 -193 91
-406 173 -524 57 -84 156 -190 230 -245 97 -74 147 -101 243 -134 73 -25 94
-27 230 -28 144 -1 154 1 245 32 299 103 541 337 656 636 55 144 86 265 87
345 l2 64 -57 18 c-32 9 -124 27 -205 39 -197 29 -223 36 -223 61 0 11 7 22
17 26 9 3 100 -7 202 -22 102 -16 208 -29 236 -30 47 0 50 1 56 30 8 38 11
313 3 342 -5 17 -17 23 -72 32 -75 12 -1561 225 -1634 234 l-47 6 -21 -56z
m127 -755 c6 -7 13 -58 16 -113 8 -140 42 -241 118 -355 57 -85 149 -174 217
-209 14 -7 22 -21 22 -36 0 -24 -9 -30 -39 -25 -52 7 -226 161 -260 230 -10
19 -32 63 -50 97 -77 149 -103 423 -41 423 4 0 12 -6 17 -12z"/>
<path d="M5820 8226 c-91 -24 -191 -51 -222 -61 -55 -18 -58 -20 -58 -51 0
-20 6 -34 16 -38 17 -6 697 -119 789 -131 49 -6 50 -6 62 24 11 30 10 32 -45
75 -105 80 -317 214 -347 220 -19 3 -91 -11 -195 -38z"/>
<path d="M9330 11322 c-60 -5 -1592 -222 -1652 -234 -55 -10 -58 -12 -64 -45
-4 -19 -5 -104 -2 -189 3 -122 7 -157 18 -165 16 -9 29 -8 206 16 61 9 118 13
127 9 18 -6 23 -39 9 -48 -5 -3 -73 -17 -152 -31 -79 -14 -152 -31 -163 -37
-18 -9 -19 -17 -13 -77 20 -223 155 -520 312 -690 115 -125 326 -255 479 -296
190 -50 401 -19 585 86 103 59 277 234 344 347 58 98 108 225 133 342 23 108
26 435 4 519 l-14 54 -70 -7 c-39 -4 -320 -45 -625 -92 -305 -47 -580 -86
-611 -87 -53 -2 -56 -1 -56 23 0 19 7 26 30 32 17 5 296 49 620 98 722 110
695 105 695 133 0 53 -79 321 -99 337 -3 3 -22 4 -41 2z m-19 -774 c15 -28 6
-181 -16 -263 -38 -144 -131 -289 -244 -379 -107 -86 -161 -105 -161 -57 0 12
28 40 78 78 42 33 99 86 125 119 96 117 157 288 157 437 0 62 11 87 37 87 7 0
18 -10 24 -22z"/>
<path d="M8875 8253 c-22 -6 -260 -165 -336 -225 -43 -34 -48 -41 -39 -59 6
-10 8 -24 5 -29 -3 -6 -1 -10 4 -10 27 0 735 115 836 135 28 6 30 10 27 40 -4
32 -8 35 -66 54 -87 29 -373 101 -394 100 -9 -1 -26 -4 -37 -6z"/>
</g>
</svg>
